<svg xmlns="http://www.w3.org/2000/svg" width="111" height="43" viewBox="0 0 111 43" fill="none"><path d="M67 1V16.6735" stroke="#D6262E" stroke-width="1.5" stroke-linecap="round"></path><path d="M43 8.83691L51 16.6736" stroke="#D6262E" stroke-width="1.5" stroke-linecap="round"></path><path d="M67 1L58 9.81633" stroke="#D6262E" stroke-width="1.5" stroke-linecap="round"></path><path d="M43 1.48975L67 25" stroke="#D6262E" stroke-width="1.5" stroke-linecap="round"></path><path d="M43 25.0002V8.83691" stroke="#D6262E" stroke-width="1.5" stroke-linecap="round"></path><path d="M6.4842 43L1.7963 35.6709V43H0V33H1.96278L6.74707 40.5314L11.5401 33H13.4941V43H11.7066V35.6709L7.01871 43H6.4842Z" fill="white"></path><path d="M27.8642 41.5704C27.8642 41.7657 27.8174 41.9517 27.724 42.1283C27.6305 42.3003 27.502 42.4514 27.3384 42.5816C27.1749 42.7118 26.9821 42.814 26.7601 42.8884C26.544 42.9628 26.3132 43 26.0679 43H18.8914C18.6461 43 18.4124 42.9628 18.1905 42.8884C17.9743 42.814 17.7845 42.7118 17.6209 42.5816C17.4573 42.4514 17.3288 42.3003 17.2353 42.1283C17.1419 41.9517 17.0952 41.7657 17.0952 41.5704V34.4296C17.0952 34.2343 17.1419 34.0507 17.2353 33.8787C17.3288 33.702 17.4573 33.5509 17.6209 33.4254C17.7845 33.2952 17.9743 33.1929 18.1905 33.1185C18.4124 33.0395 18.6461 33 18.8914 33H26.0679C26.3132 33 26.544 33.0395 26.7601 33.1185C26.9821 33.1929 27.1749 33.2952 27.3384 33.4254C27.502 33.5509 27.6305 33.702 27.724 33.8787C27.8174 34.0507 27.8642 34.2343 27.8642 34.4296V41.5704ZM18.8914 34.4296V41.5704H26.0679V34.4296H18.8914Z" fill="white"></path><path d="M42.2254 41.5704C42.2254 41.7657 42.1787 41.9517 42.0852 42.1283C41.9918 42.3003 41.8633 42.4514 41.6997 42.5816C41.5361 42.7118 41.3434 42.814 41.1214 42.8884C40.9052 42.9628 40.6745 43 40.4292 43H33.2527C33.0074 43 32.7737 42.9628 32.5517 42.8884C32.3356 42.814 32.1457 42.7118 31.9822 42.5816C31.8186 42.4514 31.6901 42.3003 31.5966 42.1283C31.5032 41.9517 31.4564 41.7657 31.4564 41.5704V34.4296C31.4564 34.2343 31.5032 34.0507 31.5966 33.8787C31.6901 33.702 31.8186 33.5509 31.9822 33.4254C32.1457 33.2952 32.3356 33.1929 32.5517 33.1185C32.7737 33.0395 33.0074 33 33.2527 33H40.4292C40.6745 33 40.9052 33.0395 41.1214 33.1185C41.3434 33.1929 41.5361 33.2952 41.6997 33.4254C41.8633 33.5509 41.9918 33.702 42.0852 33.8787C42.1787 34.0507 42.2254 34.2343 42.2254 34.4296V41.5704ZM33.2527 34.4296V41.5704H40.4292V34.4296H33.2527Z" fill="white"></path><path d="M47.614 43H45.8177V33H47.614L55.1672 40.7545V33H56.9635V43H55.1672L47.614 35.2455V43Z" fill="white"></path><path d="M66.1111 33L70.9568 43H69.1605L68.0476 40.6987H62.3783L61.2655 43H59.4692L64.3148 33H66.1111ZM63.0618 39.2692H67.3554L65.2174 34.8619L63.0618 39.2692Z" fill="white"></path><path d="M75.2675 43H73.4712V33H75.2675L82.8207 40.7545V33H84.617V43H82.8207L75.2675 35.2455V43Z" fill="white"></path><path d="M88.2005 34.4296C88.2005 34.2343 88.2472 34.0507 88.3407 33.8787C88.4342 33.702 88.5627 33.5509 88.7263 33.4254C88.8898 33.2952 89.0797 33.1929 89.2958 33.1185C89.5178 33.0395 89.7515 33 89.9968 33H96.814C97.0593 33 97.2901 33.0395 97.5062 33.1185C97.7282 33.1929 97.921 33.2952 98.0845 33.4254C98.2481 33.5509 98.3766 33.702 98.4701 33.8787C98.5635 34.0507 98.6103 34.2343 98.6103 34.4296V35.7197H96.814V34.4296H89.9968V41.5704H96.814V40.2873H98.6103V41.5704C98.6103 41.7657 98.5635 41.9517 98.4701 42.1283C98.3766 42.3003 98.2481 42.4514 98.0845 42.5816C97.921 42.7118 97.7282 42.814 97.5062 42.8884C97.2901 42.9628 97.0593 43 96.814 43H89.9968C89.7515 43 89.5178 42.9628 89.2958 42.8884C89.0797 42.814 88.8898 42.7118 88.7263 42.5816C88.5627 42.4514 88.4342 42.3003 88.3407 42.1283C88.2472 41.9517 88.2005 41.7657 88.2005 41.5704V34.4296Z" fill="white"></path><path d="M101.843 33H111V34.4296H103.64V37.2887H109.922V38.7183H103.64V41.5704H111V43H101.843V33Z" fill="white"></path></svg>